<?xml version="1.0" encoding="UTF-8" standalone="no"?>
<!-- Created with Inkscape (http://www.inkscape.org/) -->

<svg
   width="112.99998mm"
   height="77.716919mm"
   viewBox="0 0 112.99998 77.716918"
   version="1.1"
   id="svg5"
   xml:space="preserve"
   inkscape:version="1.2.1 (9c6d41e410, 2022-07-14)"
   sodipodi:docname="Ordered_Sets.svg"
   xmlns:inkscape="http://www.inkscape.org/namespaces/inkscape"
   xmlns:sodipodi="http://sodipodi.sourceforge.net/DTD/sodipodi-0.dtd"
   xmlns="http://www.w3.org/2000/svg"
   xmlns:svg="http://www.w3.org/2000/svg"><sodipodi:namedview
     id="namedview7"
     pagecolor="#ffffff"
     bordercolor="#666666"
     borderopacity="1.0"
     inkscape:showpageshadow="2"
     inkscape:pageopacity="0.0"
     inkscape:pagecheckerboard="0"
     inkscape:deskcolor="#d1d1d1"
     inkscape:document-units="mm"
     showgrid="false"
     inkscape:zoom="0.63874158"
     inkscape:cx="-11.741838"
     inkscape:cy="162.03736"
     inkscape:window-width="1440"
     inkscape:window-height="898"
     inkscape:window-x="-6"
     inkscape:window-y="-6"
     inkscape:window-maximized="1"
     inkscape:current-layer="svg5" /><defs
     id="defs2"><clipPath
       clipPathUnits="userSpaceOnUse"
       id="clipPath27"><path
         d="M 413.234,252.039 H 181.694 V 589.54 h 231.54 z"
         clip-rule="evenodd"
         id="path25" /></clipPath><clipPath
       clipPathUnits="userSpaceOnUse"
       id="clipPath33"><path
         d="M 181.704,252.066 H 413.263 V 589.562 H 181.704 Z"
         id="path31" /></clipPath><clipPath
       clipPathUnits="userSpaceOnUse"
       id="clipPath345"><path
         d="M 418.814,249.159 H 180.194 V 591.76 h 238.62 z"
         clip-rule="evenodd"
         id="path343" /></clipPath><clipPath
       clipPathUnits="userSpaceOnUse"
       id="clipPath351"><path
         d="M 413.234,252.039 H 181.694 V 589.54 h 231.54 z"
         clip-rule="evenodd"
         id="path349" /></clipPath><clipPath
       clipPathUnits="userSpaceOnUse"
       id="clipPath357"><path
         d="M 174.563,244.098 H 420.637 V 597.921 H 174.563 Z"
         id="path355" /></clipPath></defs><g
     inkscape:label="图层 1"
     inkscape:groupmode="layer"
     id="layer1"
     transform="translate(-312.33356,-65.826213)" /><g
     id="g23"
     clip-path="url(#clipPath27)"
     transform="matrix(0,0.35277778,0.35277776,0,-92.33356,-65.826213)"><g
       id="g29"
       clip-path="url(#clipPath33)"><path
         d="m 269.978,443.118 h 19.621 v 82.337 h -19.621 z"
         style="fill:#dc2225;fill-opacity:1;fill-rule:nonzero;stroke:none"
         id="path35" /><g
         id="g37"
         transform="translate(360.286,438.779)"><path
           d="M 0,0 V -0.419 H -0.469 V 0 H 0 M -0.469,0.446 V -0.419 H -162.472 V 0.446 H -0.469 M -162.941,-0.419 V 0 h 0.469 v -0.419 h -0.469 m 0.923,91.421 V 0 h -0.923 v 91.002 h 0.923 m -0.923,0 v 0.446 h 0.469 v -0.446 h -0.469 m 0.469,-0.42 v 0.866 H -0.469 V 90.582 H -162.472 M 0,91.448 v -0.446 h -0.469 v 0.446 H 0 M 0,0 H -0.92401 V 91.002 H 0 Z"
           style="fill:#272323;fill-opacity:1;fill-rule:evenodd;stroke:none"
           id="path39" /></g><g
         id="g41"
         transform="translate(290.041,443.118)"><path
           d="M 0,0 V -0.433 H -0.441 V 0 H 0 M -0.441,0.432 V -0.433 H -20.063 V 0.432 H -0.441 M -20.517,-0.433 V 0 h 0.454 v -0.433 h -0.454 m 0.909,82.77 V 0 h -0.909 v 82.337 h 0.909 m -0.909,0 v 0.432 h 0.454 v -0.432 h -0.454 m 0.454,-0.419 v 0.851 H -0.441 V 81.918 H -20.063 M 0,82.77 V 82.337 H -0.441 V 82.77 H 0 M 0,0 H -0.90997 V 82.337 H 0 Z"
           style="fill:#272323;fill-opacity:1;fill-rule:evenodd;stroke:none"
           id="path43" /></g><g
         id="g45"
         transform="translate(360.286,314.373)"><path
           d="M 0,0 V -0.433 H -0.469 V 0 H 0 M -0.469,0.433 V -0.433 H -162.472 V 0.433 H -0.469 M -162.941,-0.433 V 0 h 0.469 v -0.433 h -0.469 m 0.923,91.434 V 0 h -0.923 v 91.001 h 0.923 m -0.923,0 v 0.433 h 0.469 v -0.433 h -0.469 m 0.469,-0.432 v 0.865 H -0.469 V 90.569 H -162.472 M 0,91.434 v -0.432 h -0.469 v 0.432 H 0 M 0,0 H -0.92401 V 91.001 H 0 Z"
           style="fill:#272323;fill-opacity:1;fill-rule:evenodd;stroke:none"
           id="path47" /></g><text
         xml:space="preserve"
         transform="matrix(0,0.95143981,1,0,194.5174,323.9854)"
         style="font-variant:normal;font-weight:normal;font-size:10.8834px;font-family:Arial;-inkscape-font-specification:ArialMT;writing-mode:lr-tb;fill:#1e1f21;fill-opacity:1;fill-rule:nonzero;stroke:none"
         id="text51"><tspan
           x="0 7.2592278 15.117043 18.142628 27.219383 35.077198 41.128368 46.570068 48.986183 54.427883 62.907139"
           y="0"
           sodipodi:role="line"
           id="tspan49">PCIeDeviceA</tspan></text><text
         xml:space="preserve"
         transform="matrix(0,0.951452,1,0,356.5487,386.7074)"
         style="font-variant:normal;font-weight:normal;font-size:6.5358px;font-family:Arial;-inkscape-font-specification:ArialMT;writing-mode:lr-tb;fill:#272323;fill-opacity:1;fill-rule:nonzero;stroke:none"
         id="text55"><tspan
           x="0 2.1764214 6.169795 10.529174"
           y="0"
           sodipodi:role="line"
           id="tspan53">(TX)</tspan></text><path
         d="m 289.956,383.044 h 4.944 v 0.87805 h -4.944 z"
         style="fill:#272323;fill-opacity:1;fill-rule:nonzero;stroke:none"
         id="path57" /><g
         id="g59"
         transform="translate(294.516,385.747)"><path
           d="M 0,0 4.319,-2.257 0,-4.529 V 0 L 4.319,-2.257 0,0"
           style="fill:#272323;fill-opacity:1;fill-rule:evenodd;stroke:none"
           id="path61" /></g><g
         id="g63"
         transform="translate(294.26,334.934)"><path
           d="M 0,0 -4.305,-2.271 0,-4.529 V 0 L -4.305,-2.271 0,0"
           style="fill:#272323;fill-opacity:1;fill-rule:evenodd;stroke:none"
           id="path65" /></g><path
         d="m 293.904,332.23 h 4.916 v 0.86499 h -4.916 z"
         style="fill:#272323;fill-opacity:1;fill-rule:nonzero;stroke:none"
         id="path67" /><path
         d="m 202.644,318.59 h 13.029 v 82.013 h -13.029 z"
         style="fill:#ffffff;fill-opacity:1;fill-rule:nonzero;stroke:none"
         id="path69" /><g
         id="g71"
         transform="translate(216.113,318.591)"><path
           d="M 0,0 V -0.419 H -0.44 V 0 H 0 M -0.44,0.446 V -0.419 H -13.469 V 0.446 H -0.44 M -13.923,-0.419 V 0 h 0.454 v -0.419 h -0.454 m 0.909,82.431 V 0 h -0.91 v 82.012 h 0.91 m -0.909,0 v 0.419 h 0.454 v -0.419 h -0.454 m 0.454,-0.432 v 0.852 H -0.44 V 81.58 H -13.469 M 0,82.431 v -0.419 h -0.44 v 0.419 H 0 M 0,0 H -0.90903 V 82.013 H 0 Z"
           style="fill:#272323;fill-opacity:1;fill-rule:evenodd;stroke:none"
           id="path73" /></g><text
         xml:space="preserve"
         transform="matrix(0,0.95143981,1,0,212.3914,332.3933)"
         style="font-variant:normal;font-weight:normal;font-size:10.8834px;font-family:Arial;-inkscape-font-specification:ArialMT;writing-mode:lr-tb;fill:#272323;fill-opacity:1;fill-rule:nonzero;stroke:none"
         id="text77"><tspan
           x="0 7.8578148 13.908985 19.350685 21.7668 27.2085 36.285255 44.14307 50.194241 53.818413"
           y="0"
           sodipodi:role="line"
           id="tspan75">DeviceCore</tspan></text><path
         d="m 228.134,318.672 h 32.338 v 81.999 h -32.338 z"
         style="fill:#919398;fill-opacity:1;fill-rule:nonzero;stroke:none"
         id="path79" /><g
         id="g81"
         transform="translate(260.94,318.671)"><path
           d="M 0,0 V -0.446 H -0.468 V 0 H 0 M -0.468,0.433 V -0.446 H -32.807 V 0.433 H -0.468 M -33.262,-0.446 V 0 h 0.455 v -0.446 h -0.455 m 0.91,82.445 V 0 h -0.91 v 81.999 h 0.91 m -0.91,0 v 0.419 h 0.455 v -0.419 h -0.455 m 0.455,-0.432 v 0.851 H -0.468 V 81.567 H -32.807 M 0,82.419 V 82 h -0.468 v 0.419 H 0 M 0.001,0 H -0.92298 V 81.999 H 0.001 Z"
           style="fill:#272323;fill-opacity:1;fill-rule:evenodd;stroke:none"
           id="path83" /></g><g
         id="g85"
         transform="translate(220.092,362.091)"><path
           d="M 0,0 -4.22,-2.42 0.171,-4.501 0,0 -4.22,-2.42 0,0"
           style="fill:#272323;fill-opacity:1;fill-rule:evenodd;stroke:none"
           id="path87" /></g><g
         id="g89"
         transform="translate(223.431,360.374)"><path
           d="M 0,0 -3.652,-0.122 -3.609,-0.987 0.029,-0.852 0,0"
           style="fill:#272323;fill-opacity:1;fill-rule:evenodd;stroke:none"
           id="path91" /></g><g
         id="g93"
         transform="translate(222.976,362.185)"><path
           d="M 0,0 4.39,-2.081 0.199,-4.488 0,0 4.39,-2.081 0,0"
           style="fill:#272323;fill-opacity:1;fill-rule:evenodd;stroke:none"
           id="path95" /></g><path
         d="m 261.197,383.044 h 4.93 v 0.87805 h -4.93 z"
         style="fill:#272323;fill-opacity:1;fill-rule:nonzero;stroke:none"
         id="path97" /><g
         id="g99"
         transform="translate(265.758,385.747)"><path
           d="M 0,0 4.306,-2.257 0,-4.529 V 0 L 4.306,-2.257 0,0"
           style="fill:#272323;fill-opacity:1;fill-rule:evenodd;stroke:none"
           id="path101" /></g><g
         id="g103"
         transform="translate(265.174,334.934)"><path
           d="M 0,0 -4.319,-2.271 0,-4.529 V 0 L -4.319,-2.271 0,0"
           style="fill:#272323;fill-opacity:1;fill-rule:evenodd;stroke:none"
           id="path105" /></g><path
         d="m 264.792,332.23 h 4.945 v 0.86499 h -4.945 z"
         style="fill:#272323;fill-opacity:1;fill-rule:nonzero;stroke:none"
         id="path107" /><path
         d="m 269.978,318.713 h 19.621 v 82.336 h -19.621 z"
         style="fill:#d92624;fill-opacity:1;fill-rule:nonzero;stroke:none"
         id="path109" /><g
         id="g111"
         transform="translate(290.041,318.712)"><path
           d="M 0,0 V -0.446 H -0.441 V 0 H 0 M -0.441,0.419 V -0.446 H -20.063 V 0.419 H -0.441 M -20.517,-0.446 V 0 h 0.454 v -0.446 h -0.454 m 0.909,82.782 V 0 h -0.909 v 82.336 h 0.909 m -0.909,0 v 0.42 h 0.454 v -0.42 h -0.454 m 0.454,-0.432 v 0.852 H -0.441 V 81.904 H -20.063 M 0,82.756 v -0.42 h -0.441 v 0.42 H 0 M 0,0 H -0.90997 V 82.336 H 0 Z"
           style="fill:#272323;fill-opacity:1;fill-rule:evenodd;stroke:none"
           id="path113" /></g><text
         xml:space="preserve"
         transform="matrix(0,0.95140829,1,0,283.4036,322.4033)"
         style="font-variant:normal;font-weight:normal;font-size:9.9873px;font-family:Arial;-inkscape-font-specification:ArialMT;writing-mode:lr-tb;fill:#ffffff;fill-opacity:1;fill-rule:nonzero;stroke:none"
         id="text117"><tspan
           x="0 5.7327104 9.0584812 14.61142 20.164358 25.158009 30.710947 35.704597 38.481068 40.698246 46.251186 54.580593 60.133533 65.68647 70.680122 76.233063"
           y="0"
           sodipodi:role="line"
           id="tspan115">TransactionLayer</tspan></text><text
         xml:space="preserve"
         transform="matrix(0,0.95140809,1,0,237.4685,336.2723)"
         style="font-variant:normal;font-weight:normal;font-size:9.0797px;font-family:Arial;-inkscape-font-specification:ArialMT;writing-mode:lr-tb;fill:#ffffff;fill-opacity:1;fill-rule:nonzero;stroke:none"
         id="text125"><tspan
           x="0 6.05616 12.611703 15.135859 22.707422 29.262964 34.311279 37.33482"
           y="0"
           sodipodi:role="line"
           id="tspan119">PCIeCore</tspan><tspan
           x="-13.882861 -7.3273177 -2.2790048 0.74453539 5.7928486 12.348392 17.396706 20.420246 25.468559 27.992716 34.048874 39.097187 41.621346 44.1455 50.701046 55.749359 58.7729"
           y="10.142025"
           sodipodi:role="line"
           id="tspan121">Hardware/Software</tspan><tspan
           x="7.3182383 9.8423948 14.890708 17.414865 22.463179 25.486717 28.010874 33.059189 37.599037"
           y="20.28405"
           sodipodi:role="line"
           id="tspan123">Interface</tspan></text><path
         d="m 319.224,383.044 h 4.917 v 0.87805 h -4.917 z"
         style="fill:#272323;fill-opacity:1;fill-rule:nonzero;stroke:none"
         id="path127" /><g
         id="g129"
         transform="translate(323.771,385.747)"><path
           d="M 0,0 4.319,-2.257 0,-4.529 V 0 L 4.319,-2.257 0,0"
           style="fill:#272323;fill-opacity:1;fill-rule:evenodd;stroke:none"
           id="path131" /></g><g
         id="g133"
         transform="translate(323.529,334.934)"><path
           d="M 0,0 -4.334,-2.271 0,-4.529 V 0 L -4.334,-2.271 0,0"
           style="fill:#272323;fill-opacity:1;fill-rule:evenodd;stroke:none"
           id="path135" /></g><path
         d="m 323.145,332.23 h 4.944 v 0.86499 h -4.944 z"
         style="fill:#272323;fill-opacity:1;fill-rule:nonzero;stroke:none"
         id="path137" /><path
         d="m 299.388,318.713 h 19.623 v 82.336 h -19.623 z"
         style="fill:#4193d6;fill-opacity:1;fill-rule:nonzero;stroke:none"
         id="path139" /><g
         id="g141"
         transform="translate(319.465,318.712)"><path
           d="M 0,0 V -0.446 H -0.454 V 0 H 0 M -0.454,0.419 V -0.446 H -20.077 V 0.419 H -0.454 M -20.517,-0.446 V 0 h 0.441 v -0.446 h -0.441 m 0.895,82.782 V 0 h -0.895 v 82.336 h 0.895 m -0.895,0 v 0.42 h 0.441 v -0.42 h -0.441 m 0.441,-0.432 v 0.852 H -0.454 V 81.904 H -20.076 M 0,82.756 v -0.42 h -0.454 v 0.42 H 0 M 0,0 H -0.92401 V 82.336 H 0 Z"
           style="fill:#272323;fill-opacity:1;fill-rule:evenodd;stroke:none"
           id="path143" /></g><text
         xml:space="preserve"
         transform="matrix(0,0.95140829,1,0,313.1566,326.6074)"
         style="font-variant:normal;font-weight:normal;font-size:9.9873px;font-family:Arial;-inkscape-font-specification:ArialMT;writing-mode:lr-tb;fill:#ffffff;fill-opacity:1;fill-rule:nonzero;stroke:none"
         id="text147"><tspan
           x="0 7.2108307 12.763769 15.540238 23.869646 29.422586 31.639767 37.192707 44.961826 50.514763 56.067703 61.061352 66.614296"
           y="0"
           sodipodi:role="line"
           id="tspan145">DataLinkLayer</tspan></text><path
         d="m 328.814,318.713 h 19.608 v 82.336 h -19.608 z"
         style="fill:#2a9840;fill-opacity:1;fill-rule:nonzero;stroke:none"
         id="path149" /><g
         id="g151"
         transform="translate(348.877,318.712)"><path
           d="M 0,0 V -0.446 H -0.454 V 0 H 0 M -0.454,0.419 V -0.446 H -20.061 V 0.419 H -0.454 M -20.517,-0.446 V 0 h 0.456 v -0.446 h -0.456 m 0.895,82.782 V 0 h -0.895 v 82.336 h 0.895 m -0.895,0 v 0.42 h 0.456 v -0.42 h -0.456 m 0.456,-0.432 v 0.852 H -0.454 V 81.904 H -20.061 M 0,82.756 v -0.42 h -0.454 v 0.42 H 0 M 0,0 H -0.89502 V 82.336 H 0 Z"
           style="fill:#272323;fill-opacity:1;fill-rule:evenodd;stroke:none"
           id="path153" /></g><text
         xml:space="preserve"
         transform="matrix(0,0.95140829,1,0,342.2407,328.6213)"
         style="font-variant:normal;font-weight:normal;font-size:9.9873px;font-family:Arial;-inkscape-font-specification:ArialMT;writing-mode:lr-tb;fill:#ffffff;fill-opacity:1;fill-rule:nonzero;stroke:none"
         id="text157"><tspan
           x="0 6.6615291 12.214468 17.208118 22.201767 24.418949 29.412598 34.965538 39.959187 45.512127 51.065063 56.058716 61.611652"
           y="0"
           sodipodi:role="line"
           id="tspan155">PhysicalLayer</tspan></text><text
         xml:space="preserve"
         transform="matrix(0,0.951452,1,0,356.5487,336.8134)"
         style="font-variant:normal;font-weight:normal;font-size:6.5358px;font-family:Arial;-inkscape-font-specification:ArialMT;writing-mode:lr-tb;fill:#272323;fill-opacity:1;fill-rule:nonzero;stroke:none"
         id="text161"><tspan
           x="0 2.1764214 6.8952689 11.254647"
           y="0"
           sodipodi:role="line"
           id="tspan159">(RX)</tspan></text><text
         xml:space="preserve"
         transform="matrix(0,0.95143981,1,0,194.5174,445.2805)"
         style="font-variant:normal;font-weight:normal;font-size:10.8834px;font-family:Arial;-inkscape-font-specification:ArialMT;writing-mode:lr-tb;fill:#1e1f21;fill-opacity:1;fill-rule:nonzero;stroke:none"
         id="text165"><tspan
           x="0 7.2592278 15.117043 18.142628 27.220472 35.078285 41.129456 46.571156 48.98727 54.42897 63.506817"
           y="0"
           sodipodi:role="line"
           id="tspan163">PCIeDeviceB</tspan></text><text
         xml:space="preserve"
         transform="matrix(0,0.951452,1,0,356.5487,511.1257)"
         style="font-variant:normal;font-weight:normal;font-size:6.5358px;font-family:Arial;-inkscape-font-specification:ArialMT;writing-mode:lr-tb;fill:#272323;fill-opacity:1;fill-rule:nonzero;stroke:none"
         id="text169"><tspan
           x="0 2.1764214 6.169795 10.529174"
           y="0"
           sodipodi:role="line"
           id="tspan167">(TX)</tspan></text><path
         d="m 289.956,507.461 h 4.944 v 0.86603 h -4.944 z"
         style="fill:#272323;fill-opacity:1;fill-rule:nonzero;stroke:none"
         id="path171" /><g
         id="g173"
         transform="translate(294.516,510.152)"><path
           d="M 0,0 4.319,-2.244 0,-4.515 V 0 L 4.319,-2.244 0,0"
           style="fill:#272323;fill-opacity:1;fill-rule:evenodd;stroke:none"
           id="path175" /></g><g
         id="g177"
         transform="translate(294.26,459.352)"><path
           d="M 0,0 -4.305,-2.271 0,-4.528 V 0 L -4.305,-2.271 0,0"
           style="fill:#272323;fill-opacity:1;fill-rule:evenodd;stroke:none"
           id="path179" /></g><path
         d="m 293.904,456.649 h 4.916 v 0.85098 h -4.916 z"
         style="fill:#272323;fill-opacity:1;fill-rule:nonzero;stroke:none"
         id="path181" /><path
         d="m 202.644,443.01 h 13.029 v 81.999 h -13.029 z"
         style="fill:#ffffff;fill-opacity:1;fill-rule:nonzero;stroke:none"
         id="path183" /><g
         id="g185"
         transform="translate(216.113,443.009)"><path
           d="M 0,0 V -0.432 H -0.44 V 0 H 0 M -0.44,0.446 V -0.432 H -13.469 V 0.446 H -0.44 M -13.923,-0.432 V 0 h 0.454 v -0.432 h -0.454 m 0.909,82.431 V 0 h -0.91 v 81.999 h 0.91 m -0.909,0 v 0.433 h 0.454 v -0.433 h -0.454 m 0.454,-0.419 v 0.852 H -0.44 V 81.58 H -13.469 M 0,82.432 v -0.433 h -0.44 v 0.433 H 0 M 0,0 H -0.90903 V 81.999 H 0 Z"
           style="fill:#272323;fill-opacity:1;fill-rule:evenodd;stroke:none"
           id="path187" /></g><text
         xml:space="preserve"
         transform="matrix(0,0.95143981,1,0,212.3914,456.8116)"
         style="font-variant:normal;font-weight:normal;font-size:10.8834px;font-family:Arial;-inkscape-font-specification:ArialMT;writing-mode:lr-tb;fill:#272323;fill-opacity:1;fill-rule:nonzero;stroke:none"
         id="text191"><tspan
           x="0 7.8578148 13.908985 19.350685 21.7668 27.2085 36.285255 44.14307 50.194241 53.818413"
           y="0"
           sodipodi:role="line"
           id="tspan189">DeviceCore</tspan></text><path
         d="m 228.134,443.09 h 32.338 v 81.986 h -32.338 z"
         style="fill:#919398;fill-opacity:1;fill-rule:nonzero;stroke:none"
         id="path193" /><g
         id="g195"
         transform="translate(260.94,443.09)"><path
           d="M 0,0 V -0.445 H -0.468 V 0 H 0 M -0.468,0.433 V -0.446 H -32.807 V 0.433 H -0.468 M -33.262,-0.445 V 0 h 0.455 v -0.445 h -0.455 m 0.91,82.431 V 0 h -0.91 v 81.986 h 0.91 m -0.91,0 v 0.433 h 0.455 v -0.433 h -0.455 m 0.455,-0.419 v 0.852 H -0.468 V 81.567 H -32.807 M 0,82.419 v -0.432 h -0.468 v 0.432 H 0 M 0.001,0 H -0.92298 V 81.986 H 0.001 Z"
           style="fill:#272323;fill-opacity:1;fill-rule:evenodd;stroke:none"
           id="path197" /></g><g
         id="g199"
         transform="translate(220.092,486.51)"><path
           d="M 0,0 -4.22,-2.42 0.171,-4.515 0,0 -4.22,-2.42 0,0"
           style="fill:#272323;fill-opacity:1;fill-rule:evenodd;stroke:none"
           id="path201" /></g><g
         id="g203"
         transform="translate(223.431,484.793)"><path
           d="M 0,0 -3.652,-0.135 -3.609,-0.987 0.029,-0.852 0,0"
           style="fill:#272323;fill-opacity:1;fill-rule:evenodd;stroke:none"
           id="path205" /></g><g
         id="g207"
         transform="translate(222.976,486.605)"><path
           d="M 0,0 4.39,-2.096 0.199,-4.488 0,0 4.39,-2.096 0,0"
           style="fill:#272323;fill-opacity:1;fill-rule:evenodd;stroke:none"
           id="path209" /></g><path
         d="m 261.197,507.461 h 4.93 v 0.86603 h -4.93 z"
         style="fill:#272323;fill-opacity:1;fill-rule:nonzero;stroke:none"
         id="path211" /><g
         id="g213"
         transform="translate(265.758,510.152)"><path
           d="M 0,0 4.306,-2.244 0,-4.515 V 0 L 4.306,-2.244 0,0"
           style="fill:#272323;fill-opacity:1;fill-rule:evenodd;stroke:none"
           id="path215" /></g><g
         id="g217"
         transform="translate(265.174,459.352)"><path
           d="M 0,0 -4.319,-2.271 0,-4.528 V 0 L -4.319,-2.271 0,0"
           style="fill:#272323;fill-opacity:1;fill-rule:evenodd;stroke:none"
           id="path219" /></g><path
         d="m 264.792,456.649 h 4.945 v 0.85098 h -4.945 z"
         style="fill:#272323;fill-opacity:1;fill-rule:nonzero;stroke:none"
         id="path221" /><text
         xml:space="preserve"
         transform="matrix(0,0.95140829,1,0,283.4036,446.8216)"
         style="font-variant:normal;font-weight:normal;font-size:9.9873px;font-family:Arial;-inkscape-font-specification:ArialMT;writing-mode:lr-tb;fill:#ffffff;fill-opacity:1;fill-rule:nonzero;stroke:none"
         id="text225"><tspan
           x="0 5.7327104 9.0584812 14.61142 20.164358 25.158009 30.710947 35.704597 38.481068 40.698246 46.251186 54.580593 60.133533 65.68647 70.680122 76.233063"
           y="0"
           sodipodi:role="line"
           id="tspan223">TransactionLayer</tspan></text><text
         xml:space="preserve"
         transform="matrix(0,0.95140809,1,0,237.4685,460.6906)"
         style="font-variant:normal;font-weight:normal;font-size:9.0797px;font-family:Arial;-inkscape-font-specification:ArialMT;writing-mode:lr-tb;fill:#ffffff;fill-opacity:1;fill-rule:nonzero;stroke:none"
         id="text233"><tspan
           x="0 6.05616 12.611703 15.135859 22.707422 29.262964 34.311279 37.33482"
           y="0"
           sodipodi:role="line"
           id="tspan227">PCIeCore</tspan><tspan
           x="-13.882861 -7.3273177 -2.2790048 0.74453539 5.7928486 12.348392 17.396706 20.420246 25.468559 27.992716 34.048874 39.097187 41.621346 44.1455 50.701046 55.749359 58.7729"
           y="10.142025"
           sodipodi:role="line"
           id="tspan229">Hardware/Software</tspan><tspan
           x="7.3000789 9.824235 14.872549 17.396706 22.445019 25.468559 27.992716 33.041027 37.580879"
           y="20.28405"
           sodipodi:role="line"
           id="tspan231">Interface</tspan></text><path
         d="m 319.224,507.461 h 4.917 v 0.86603 h -4.917 z"
         style="fill:#272323;fill-opacity:1;fill-rule:nonzero;stroke:none"
         id="path235" /><g
         id="g237"
         transform="translate(323.771,510.152)"><path
           d="M 0,0 4.319,-2.244 0,-4.515 V 0 L 4.319,-2.244 0,0"
           style="fill:#272323;fill-opacity:1;fill-rule:evenodd;stroke:none"
           id="path239" /></g><g
         id="g241"
         transform="translate(323.529,459.352)"><path
           d="M 0,0 -4.334,-2.271 0,-4.528 V 0 L -4.334,-2.271 0,0"
           style="fill:#272323;fill-opacity:1;fill-rule:evenodd;stroke:none"
           id="path243" /></g><path
         d="m 323.145,456.649 h 4.944 v 0.85098 h -4.944 z"
         style="fill:#272323;fill-opacity:1;fill-rule:nonzero;stroke:none"
         id="path245" /><path
         d="m 299.388,443.118 h 19.623 v 82.337 h -19.623 z"
         style="fill:#4193d6;fill-opacity:1;fill-rule:nonzero;stroke:none"
         id="path247" /><g
         id="g249"
         transform="translate(319.465,443.118)"><path
           d="M 0,0 V -0.433 H -0.454 V 0 H 0 M -0.454,0.432 V -0.433 H -20.077 V 0.432 H -0.454 M -20.517,-0.433 V 0 h 0.441 v -0.433 h -0.441 m 0.895,82.77 V 0 h -0.895 v 82.337 h 0.895 m -0.895,0 v 0.432 h 0.441 v -0.432 h -0.441 m 0.441,-0.419 v 0.851 H -0.454 V 81.918 H -20.076 M 0,82.77 V 82.337 H -0.454 V 82.77 H 0 M 0,0 H -0.92401 V 82.337 H 0 Z"
           style="fill:#272323;fill-opacity:1;fill-rule:evenodd;stroke:none"
           id="path251" /></g><text
         xml:space="preserve"
         transform="matrix(0,0.95140829,1,0,313.1566,451.0116)"
         style="font-variant:normal;font-weight:normal;font-size:9.9873px;font-family:Arial;-inkscape-font-specification:ArialMT;writing-mode:lr-tb;fill:#ffffff;fill-opacity:1;fill-rule:nonzero;stroke:none"
         id="text255"><tspan
           x="0 7.2108307 12.763769 15.540238 23.869646 29.422586 31.639767 37.192707 44.961826 50.514763 56.067703 61.061352 66.614296"
           y="0"
           sodipodi:role="line"
           id="tspan253">DataLinkLayer</tspan></text><path
         d="m 328.814,443.118 h 19.608 v 82.337 h -19.608 z"
         style="fill:#2a9840;fill-opacity:1;fill-rule:nonzero;stroke:none"
         id="path257" /><g
         id="g259"
         transform="translate(348.877,443.118)"><path
           d="M 0,0 V -0.433 H -0.454 V 0 H 0 M -0.454,0.432 V -0.433 H -20.061 V 0.432 H -0.454 M -20.517,-0.433 V 0 h 0.456 v -0.433 h -0.456 m 0.895,82.77 V 0 h -0.895 v 82.337 h 0.895 m -0.895,0 v 0.432 h 0.456 v -0.432 h -0.456 m 0.456,-0.419 v 0.851 H -0.454 V 81.918 H -20.061 M 0,82.77 V 82.337 H -0.454 V 82.77 H 0 M 0,0 H -0.89502 V 82.337 H 0 Z"
           style="fill:#272323;fill-opacity:1;fill-rule:evenodd;stroke:none"
           id="path261" /></g><text
         xml:space="preserve"
         transform="matrix(0,0.95140829,1,0,342.2407,453.0396)"
         style="font-variant:normal;font-weight:normal;font-size:9.9873px;font-family:Arial;-inkscape-font-specification:ArialMT;writing-mode:lr-tb;fill:#ffffff;fill-opacity:1;fill-rule:nonzero;stroke:none"
         id="text265"><tspan
           x="0 6.6615291 12.214468 17.208118 22.201767 24.418949 29.412598 34.965538 39.959187 45.512127 51.065063 56.058716 61.611652"
           y="0"
           sodipodi:role="line"
           id="tspan263">PhysicalLayer</tspan></text><text
         xml:space="preserve"
         transform="matrix(0,0.951452,1,0,356.5487,461.2186)"
         style="font-variant:normal;font-weight:normal;font-size:6.5358px;font-family:Arial;-inkscape-font-specification:ArialMT;writing-mode:lr-tb;fill:#272323;fill-opacity:1;fill-rule:nonzero;stroke:none"
         id="text269"><tspan
           x="0 2.1764214 6.8952689 11.254647"
           y="0"
           sodipodi:role="line"
           id="tspan267">(RX)</tspan></text><g
         id="g271"
         transform="translate(353.068,334.866)"><path
           d="M 0,0 -4.319,-2.258 0,-4.529 V 0 L -4.319,-2.258 0,0"
           style="fill:#1e1917;fill-opacity:1;fill-rule:evenodd;stroke:none"
           id="path273" /></g><g
         id="g275"
         transform="translate(398.549,332.609)"><path
           d="M 0,0 -0.455,0.419 H -45.85 V -0.432 H -0.455 L 0,0 -0.455,-0.432 H 0 V 0"
           style="fill:#1e1917;fill-opacity:1;fill-rule:evenodd;stroke:none"
           id="path277" /></g><g
         id="g279"
         transform="translate(398.094,508.395)"><path
           d="m 0,0 -0.455,-0.433 v -175.353 h 0.91 V -0.433 L 0,0 0.455,-0.433 V 0 H 0"
           style="fill:#1e1917;fill-opacity:1;fill-rule:evenodd;stroke:none"
           id="path281" /></g><path
         d="m 349.132,507.53 h 48.962 v 0.86594 h -48.962 z"
         style="fill:#1e1917;fill-opacity:1;fill-rule:nonzero;stroke:none"
         id="path283" /><g
         id="g285"
         transform="translate(383.585,383.665)"><path
           d="M 0,0 -0.864,0.433 H -34.567 V -0.432 H -0.864 L 0,0 -0.864,-0.432 H 0 V 0"
           style="fill:#1e1917;fill-opacity:1;fill-rule:evenodd;stroke:none"
           id="path287" /></g><g
         id="g289"
         transform="translate(382.633,383.628)"><path
           d="M 0,0 H 0.91 V 73.335 L 0.455,73.767 0.91,73.335 v 0.432 H 0.455 L 0,73.335"
           style="fill:#1e1917;fill-opacity:1;fill-rule:evenodd;stroke:none"
           id="path291" /></g><path
         d="m 353.096,456.73 h 30.432 v 0.86502 h -30.432 z"
         style="fill:#1e1917;fill-opacity:1;fill-rule:nonzero;stroke:none"
         id="path293" /><g
         id="g295"
         transform="translate(353.48,454.905)"><path
           d="M 0,0 -4.32,2.258 0,4.515 V 0 L -4.32,2.258 0,0"
           style="fill:#1e1917;fill-opacity:1;fill-rule:evenodd;stroke:none"
           id="path297" /></g><g
         id="g299"
         transform="translate(388.908,422.057)"><path
           d="m 0,0 c 3.063,-0.03 6.09,-0.369 8.998,-1.303 1.841,-0.591 4.389,-1.705 4.748,-3.723 0.361,-2.03 -2.777,-3.348 -4.31,-3.939 -2.909,-1.12 -6.213,-1.425 -9.327,-1.454 -3.042,-0.03 -6.118,0.378 -8.997,1.302 -1.841,0.591 -4.39,1.706 -4.748,3.723 -0.361,2.03 2.776,3.349 4.31,3.939 C -6.417,-0.335 -3.114,-0.03 0,0 0.74,0.007 0.854,1.087 0.109,1.081 -3.597,1.045 -7.328,0.593 -10.735,-0.842 c -1.893,-0.797 -3.94,-2.214 -4.065,-4.317 -0.117,-1.979 2.021,-3.474 3.688,-4.242 3.433,-1.583 7.324,-2.063 11.112,-2.099 3.68,-0.035 7.473,0.502 10.845,1.922 1.893,0.797 3.94,2.214 4.064,4.317 0.117,1.98 -2.02,3.474 -3.687,4.243 C 7.788,0.564 3.897,1.044 0.109,1.081 -0.633,1.087 -0.746,0.007 0,0"
           style="fill:#1e1917;fill-opacity:1;fill-rule:nonzero;stroke:none"
           id="path301" /></g><text
         xml:space="preserve"
         transform="matrix(0,1,0.84518922,0,370.0447,409.3545)"
         style="font-variant:normal;font-weight:normal;font-size:8.9871px;font-family:Myriad;-inkscape-font-specification:Myriad-Roman;writing-mode:lr-tb;fill:#100f0d;fill-opacity:1;fill-rule:nonzero;stroke:none"
         id="text305"><tspan
           x="0 4.2419114 6.3448925 11.332733"
           y="0"
           sodipodi:role="line"
           id="tspan303">Link</tspan></text><g
         id="g307"
         transform="translate(335.439,406.424)"><path
           d="M 0,0 2.52,-3.857 4.688,0.156 0,0 2.52,-3.857 0,0"
           style="fill:#272323;fill-opacity:1;fill-rule:evenodd;stroke:none"
           id="path309" /></g><g
         id="g311"
         transform="translate(335.446,436.887)"><path
           d="M 0,0 2.168,4.013 4.674,0.182 0,0 2.168,4.013 0,0"
           style="fill:#272323;fill-opacity:1;fill-rule:evenodd;stroke:none"
           id="path313" /></g><g
         id="g315"
         transform="matrix(0,0.96814,-1.0329,0,0,0)"><path
           d="m 418.925,-327.241 h 32.999"
           style="fill:none;stroke:#100f0d;stroke-width:1.121;stroke-linecap:butt;stroke-linejoin:miter;stroke-miterlimit:4;stroke-dasharray:2.242, 2.242;stroke-dashoffset:0;stroke-opacity:1"
           id="path317" /></g><path
         d="m 333.906,303.067 h 7.402 v 8.54 h -7.402 z"
         style="fill:#2b9d41;fill-opacity:1;fill-rule:nonzero;stroke:none"
         id="path319" /><g
         id="g321"
         transform="matrix(0,0.96814,-1.0329,0,0,0)"><path
           d="m 321.861,-330.441 h -8.821 v 7.1671 h 8.821 z"
           style="fill:none;stroke:#100f0d;stroke-width:0.374;stroke-linecap:butt;stroke-linejoin:miter;stroke-miterlimit:4;stroke-dasharray:none;stroke-opacity:1"
           id="path323" /></g><path
         d="m 334.65,532.631 h 7.403 v 8.54 h -7.403 z"
         style="fill:#2b9d41;fill-opacity:1;fill-rule:nonzero;stroke:none"
         id="path325" /><g
         id="g327"
         transform="matrix(0,0.96814,-1.0329,0,0,0)"><path
           d="m 558.98,-331.161 h -8.8211 v 7.1662 h 8.8211 z"
           style="fill:none;stroke:#100f0d;stroke-width:0.374;stroke-linecap:butt;stroke-linejoin:miter;stroke-miterlimit:4;stroke-dasharray:none;stroke-opacity:1"
           id="path329" /><g
           id="g331"
           transform="translate(317.145,-330.22)"><path
             d="m 0,0 0.397,-63.153 h 237.487 v 57.89"
             style="fill:none;stroke:#2d9d40;stroke-width:1.121;stroke-linecap:butt;stroke-linejoin:miter;stroke-miterlimit:4;stroke-dasharray:none;stroke-opacity:1"
             id="path333" /></g></g><g
         id="g335"
         transform="translate(343.782,536.236)"><path
           d="M 0,0 C 1.915,-0.542 3.158,-1.041 4.694,-1.619 V 3.855 C 4.145,3.61 1.915,2.778 0,2.237 -2.049,1.656 -3.906,1.259 -5.111,1.118 -3.906,0.976 -2.049,0.58 0,0"
           style="fill:#2d9d40;fill-opacity:1;fill-rule:nonzero;stroke:none"
           id="path337" /></g></g></g><g
     id="g339"
     transform="matrix(0,0.35277778,0.35277776,0,-92.33356,-65.826213)"><g
       id="g341"
       clip-path="url(#clipPath345)"><g
         id="g347"
         clip-path="url(#clipPath351)"><g
           id="g353"
           clip-path="url(#clipPath357)"><text
             xml:space="preserve"
             transform="matrix(0,0.93728543,1,0,339.9377,261.3832)"
             style="font-variant:normal;font-weight:normal;font-size:7.7191px;font-family:Arial;-inkscape-font-specification:ArialMT;writing-mode:lr-tb;fill:#100f0d;fill-opacity:1;fill-rule:nonzero;stroke:none"
             id="text367"><tspan
               x="0 6.0054598 8.5759201 12.86774 17.159559 19.730021 24.021839 30.458025 35.606663 39.898483"
               y="0"
               sodipodi:role="line"
               id="tspan359">OrderedSet</tspan><tspan
               x="0.64840442 5.3647747 7.935235 12.227055 16.518873 20.378424 26.808434 28.522074 30.667984 32.813892 37.105713"
               y="9.2629204"
               sodipodi:role="line"
               id="tspan361">Transmitted</tspan><tspan
               x="300.13327 306.13873 308.7092 313.00101 317.29285 319.86328 324.15512 330.59207 335.74072 340.03253"
               y="-0.1929775"
               sodipodi:role="line"
               id="tspan363">OrderedSet</tspan><tspan
               x="306.13873 311.71191 316.00375 319.86328 324.15512 325.86874 329.7283 334.02011"
               y="9.0699425"
               sodipodi:role="line"
               id="tspan365">Received</tspan></text></g></g></g></g></svg>
