<?xml version="1.0" encoding="UTF-8" standalone="no"?>
<!-- Created with Inkscape (http://www.inkscape.org/) -->

<svg
   width="58.330654mm"
   height="101.19339mm"
   viewBox="0 0 58.330655 101.19339"
   style="background-color: white;"
   version="1.1"
   id="svg5"
   xml:space="preserve"
   inkscape:version="1.2.1 (9c6d41e410, 2022-07-14)"
   sodipodi:docname="type_0_header.svg"
   xmlns:inkscape="http://www.inkscape.org/namespaces/inkscape"
   xmlns:sodipodi="http://sodipodi.sourceforge.net/DTD/sodipodi-0.dtd"
   xmlns="http://www.w3.org/2000/svg"
   xmlns:svg="http://www.w3.org/2000/svg"><sodipodi:namedview
     id="namedview7"
     pagecolor="#ffffff"
     bordercolor="#666666"
     borderopacity="1.0"
     inkscape:showpageshadow="2"
     inkscape:pageopacity="0.0"
     inkscape:pagecheckerboard="0"
     inkscape:deskcolor="#d1d1d1"
     inkscape:document-units="mm"
     showgrid="false"
     inkscape:zoom="0.63874158"
     inkscape:cx="-273.97621"
     inkscape:cy="194.91451"
     inkscape:window-width="1440"
     inkscape:window-height="898"
     inkscape:window-x="-6"
     inkscape:window-y="-6"
     inkscape:window-maximized="1"
     inkscape:current-layer="svg5" /><defs
     id="defs2"><clipPath
       clipPathUnits="userSpaceOnUse"
       id="clipPath25"><path
         d="M 201.883,568.631 H 586.844 V 263.53 H 201.883 Z"
         clip-rule="evenodd"
         id="path23" /></clipPath><clipPath
       clipPathUnits="userSpaceOnUse"
       id="clipPath31"><path
         d="M 389.575,573.532 H 205.627 V 268.487 h 183.948 z"
         id="path29" /></clipPath></defs><g
     inkscape:label="图层 1"
     inkscape:groupmode="layer"
     id="layer1"
     transform="translate(-294.64719,-97.851742)" /><g
     id="g35"
     transform="matrix(0.35277776,0,0,-0.35277778,55.162682,36.378808)"><path
       d="M 0,0 -7.914,4.572 0,9.144"
       style="fill:#ed1d24;fill-opacity:1;fill-rule:nonzero;stroke:none"
       id="path37" /></g><g
     id="g39"
     transform="matrix(0.35277776,0,0,-0.35277778,55.162682,65.333398)"><path
       d="M 0,0 -7.914,4.572 0,9.144"
       style="fill:#ed1d24;fill-opacity:1;fill-rule:nonzero;stroke:none"
       id="path41" /></g><g
     id="g43"
     transform="matrix(0.35277776,0,0,-0.35277778,58.135892,34.763788)"><path
       d="M 0,0 H -9.115"
       style="fill:#ed1d24;fill-opacity:1;fill-rule:nonzero;stroke:none"
       id="path45" /></g><g
     id="g47"
     transform="matrix(0.34420879,0,0,-0.36156195,-74.647183,199.18717)"><g
       id="g49"
       transform="translate(385.761,454.762)"><path
         d="M 0,0 H -9.342"
         style="fill:none;stroke:#ed1d24;stroke-width:1.694;stroke-linecap:butt;stroke-linejoin:miter;stroke-miterlimit:2.414;stroke-dasharray:none;stroke-opacity:1"
         id="path51" /></g></g><g
     id="g53"
     transform="matrix(0.35277776,0,0,-0.35277778,58.135892,63.718738)"><path
       d="M 0,0 H -9.115"
       style="fill:#ed1d24;fill-opacity:1;fill-rule:nonzero;stroke:none"
       id="path55" /></g><g
     id="g57"
     transform="matrix(0.34420879,0,0,-0.36156195,-74.647183,199.18717)"><g
       id="g59"
       transform="translate(385.761,374.679)"><path
         d="M 0,0 H -9.342"
         style="fill:none;stroke:#ed1d24;stroke-width:1.694;stroke-linecap:butt;stroke-linejoin:miter;stroke-miterlimit:2.414;stroke-dasharray:none;stroke-opacity:1"
         id="path61" /><g
         id="g63"
         transform="translate(-0.279,80.083)"><path
           d="M 0,0 V -79.56"
           style="fill:none;stroke:#ed1d24;stroke-width:1.694;stroke-linecap:butt;stroke-linejoin:miter;stroke-miterlimit:2.414;stroke-dasharray:none;stroke-opacity:1"
           id="path65" /></g></g></g><path
     d="m 34.786942,101.0719 h 11.54889 v -5.759802 h -11.54889 z"
     style="fill:#ffffff;fill-opacity:1;fill-rule:nonzero;stroke:none;stroke-width:0.352778"
     id="path67" /><g
     id="g69"
     transform="matrix(0.34420879,0,0,-0.36156195,-74.647183,199.18717)"><path
       d="m 317.928,271.368 h 33.552 v 15.931 h -33.552 z"
       style="fill:none;stroke:#211d1d;stroke-width:0.678;stroke-linecap:butt;stroke-linejoin:miter;stroke-miterlimit:5;stroke-dasharray:none;stroke-opacity:1"
       id="path71" /></g><text
     xml:space="preserve"
     transform="scale(0.97572141,1.0248827)"
     style="font-variant:normal;font-weight:bold;font-size:4.39598px;font-family:Arial;-inkscape-font-specification:Arial-BoldMT;writing-mode:lr-tb;fill:#100f0d;fill-opacity:1;fill-rule:nonzero;stroke:none;stroke-width:0.344213"
     id="text75"
     x="8.8238125"
     y="3.1596105"><tspan
       x="8.8238125 11.184439 13.628592 16.314535 18.758718 19.980795 22.424948 23.647024 26.820921 29.265097 31.709249 34.395199 36.839344"
       y="3.1596105"
       sodipodi:role="line"
       id="tspan73"
       style="stroke-width:0.344213">Type 0 Header</tspan></text><text
     xml:space="preserve"
     transform="scale(0.97571475,1.0248897)"
     style="font-variant:normal;font-weight:bold;font-size:2.52881px;font-family:Arial;-inkscape-font-specification:Arial-BoldMT;writing-mode:lr-tb;fill:#100f0d;fill-opacity:1;fill-rule:nonzero;stroke:none;stroke-width:0.34421"
     id="text81"
     x="36.425289"
     y="95.527954"><tspan
       x="36.425289 37.1283 38.673397 39.515499 40.921505 41.905239 42.88895 44.434048 45.97916"
       y="95.527954"
       sodipodi:role="line"
       id="tspan77"
       style="stroke-width:0.34421">Interrupt</tspan><tspan
       x="39.024899 40.570004 41.273037 42.81815"
       y="97.915146"
       sodipodi:role="line"
       id="tspan79"
       style="stroke-width:0.34421">Line</tspan></text><path
     d="M 23.214777,101.0719 H 34.763662 V 95.312098 H 23.214777 Z"
     style="fill:#ffffff;fill-opacity:1;fill-rule:nonzero;stroke:none;stroke-width:0.352778"
     id="path83" /><g
     id="g85"
     transform="matrix(0.34420879,0,0,-0.36156195,-74.647183,199.18717)"><path
       d="m 284.308,271.368 h 33.552 v 15.931 h -33.552 z"
       style="fill:none;stroke:#211d1d;stroke-width:0.678;stroke-linecap:butt;stroke-linejoin:miter;stroke-miterlimit:5;stroke-dasharray:none;stroke-opacity:1"
       id="path87" /></g><path
     d="m 11.670477,101.0719 h 11.54889 v -5.759802 h -11.54889 z"
     style="fill:#ffffff;fill-opacity:1;fill-rule:nonzero;stroke:none;stroke-width:0.352778"
     id="path89" /><g
     id="g91"
     transform="matrix(0.34420879,0,0,-0.36156195,-74.647183,199.18717)"><path
       d="m 250.771,271.368 h 33.552 v 15.931 h -33.552 z"
       style="fill:none;stroke:#211d1d;stroke-width:0.678;stroke-linecap:butt;stroke-linejoin:miter;stroke-miterlimit:5;stroke-dasharray:none;stroke-opacity:1"
       id="path93" /></g><path
     d="M 0.11700614,101.0719 H 11.665897 V 95.312098 H 0.11700614 Z"
     style="fill:#ffffff;fill-opacity:1;fill-rule:nonzero;stroke:none;stroke-width:0.352778"
     id="path95" /><g
     id="g97"
     transform="matrix(0.34420879,0,0,-0.36156195,-74.647183,199.18717)"><path
       d="m 217.205,271.368 h 33.552 v 15.931 h -33.552 z"
       style="fill:none;stroke:#211d1d;stroke-width:0.678;stroke-linecap:butt;stroke-linejoin:miter;stroke-miterlimit:5;stroke-dasharray:none;stroke-opacity:1"
       id="path99" /></g><text
     xml:space="preserve"
     transform="scale(0.97571475,1.0248897)"
     style="font-variant:normal;font-weight:bold;font-size:2.52881px;font-family:Arial;-inkscape-font-specification:Arial-BoldMT;writing-mode:lr-tb;fill:#100f0d;fill-opacity:1;fill-rule:nonzero;stroke:none;stroke-width:0.34421"
     id="text105"
     x="24.483696"
     y="95.527954"><tspan
       x="24.483696 25.186729 26.731834 27.573906 28.979942 29.963648 30.947351 32.492458 34.037563"
       y="95.527954"
       sodipodi:role="line"
       id="tspan101"
       style="stroke-width:0.34421">Interrupt</tspan><tspan
       x="27.715263 29.402 30.105005"
       y="97.915146"
       sodipodi:role="line"
       id="tspan103"
       style="stroke-width:0.34421">Pin</tspan></text><path
     d="m 23.272277,77.996358 h 23.063555 v -5.75981 H 23.272277 Z"
     style="fill:#ffffff;fill-opacity:1;fill-rule:nonzero;stroke:none;stroke-width:0.352778"
     id="path107" /><g
     id="g109"
     transform="matrix(0.34420879,0,0,-0.36156195,-74.647183,199.18717)"><path
       d="m 284.475,335.19 h 67.004 v 15.93 h -67.004 z"
       style="fill:none;stroke:#211d1d;stroke-width:0.678;stroke-linecap:butt;stroke-linejoin:miter;stroke-miterlimit:5;stroke-dasharray:none;stroke-opacity:1"
       id="path111" /></g><text
     xml:space="preserve"
     transform="scale(0.97571475,1.0248897)"
     style="font-variant:normal;font-weight:bold;font-size:2.52881px;font-family:Arial;-inkscape-font-specification:Arial-BoldMT;writing-mode:lr-tb;fill:#100f0d;fill-opacity:1;fill-rule:nonzero;stroke:none;stroke-width:0.34421"
     id="text117"
     x="28.976463"
     y="72.731583"><tspan
       x="28.976463 30.663172 32.208279 33.753384 35.15942 36.565426 37.97147 38.813534 40.21957"
       y="72.731583"
       sodipodi:role="line"
       id="tspan113"
       style="stroke-width:0.34421">Subsystem</tspan><tspan
       x="29.821106 31.368738 32.774746 34.319843 35.864956 37.410053 38.393764 39.096767 39.79977"
       y="75.121307"
       sodipodi:role="line"
       id="tspan115"
       style="stroke-width:0.34421">Vendor ID</tspan></text><path
     d="M 0.11700614,77.996358 H 23.248997 v -5.75981 H 0.11700614 Z"
     style="fill:#ffffff;fill-opacity:1;fill-rule:nonzero;stroke:none;stroke-width:0.352778"
     id="path119" /><g
     id="g121"
     transform="matrix(0.34420879,0,0,-0.36156195,-74.647183,199.18717)"><path
       d="m 217.205,335.19 h 67.203 v 15.93 h -67.203 z"
       style="fill:none;stroke:#211d1d;stroke-width:0.678;stroke-linecap:butt;stroke-linejoin:miter;stroke-miterlimit:5;stroke-dasharray:none;stroke-opacity:1"
       id="path123" /></g><path
     d="m 34.786942,89.552998 h 11.54889 v -5.75945 h -11.54889 z"
     style="fill:#ffffff;fill-opacity:1;fill-rule:nonzero;stroke:none;stroke-width:0.352778"
     id="path125" /><g
     id="g127"
     transform="matrix(0.34420879,0,0,-0.36156195,-74.647183,199.18717)"><path
       d="m 317.928,303.227 h 33.552 v 15.93 h -33.552 z"
       style="fill:none;stroke:#211d1d;stroke-width:0.678;stroke-linecap:butt;stroke-linejoin:miter;stroke-miterlimit:5;stroke-dasharray:none;stroke-opacity:1"
       id="path129" /></g><path
     d="M 0.11700614,89.552998 H 34.818692 v -5.75945 H 0.11700614 Z"
     style="fill:#bdbcbc;fill-opacity:1;fill-rule:nonzero;stroke:none;stroke-width:0.352778"
     id="path131" /><g
     id="g133"
     transform="matrix(0.34420879,0,0,-0.36156195,-74.647183,199.18717)"><path
       d="m 217.205,303.227 h 100.816 v 15.93 H 217.205 Z"
       style="fill:none;stroke:#211d1d;stroke-width:0.678;stroke-linecap:butt;stroke-linejoin:miter;stroke-miterlimit:5;stroke-dasharray:none;stroke-opacity:1"
       id="path135" /></g><text
     xml:space="preserve"
     transform="scale(0.97572484,1.0248791)"
     style="font-variant:normal;font-weight:bold;font-size:2.24782px;font-family:Arial;-inkscape-font-specification:Arial-BoldMT;writing-mode:lr-tb;fill:#100f0d;fill-opacity:1;fill-rule:nonzero;stroke:none;stroke-width:0.344214"
     id="text141"
     x="36.251736"
     y="84.289665"><tspan
       x="36.251736 37.87466 39.124439 40.49786 41.747646 43.121059 43.745975 44.370846 44.995754 45.744259"
       y="84.289665"
       sodipodi:role="line"
       id="tspan137"
       style="stroke-width:0.344214">Capability</tspan><tspan
       x="37.751034 39.250301 40.623745 41.248623 42.622036 43.370571 44.62035"
       y="86.676842"
       sodipodi:role="line"
       id="tspan139"
       style="stroke-width:0.344214">Pointer</tspan></text><text
     xml:space="preserve"
     transform="scale(0.97571475,1.0248897)"
     style="font-variant:normal;font-weight:bold;font-size:2.52881px;font-family:Arial;-inkscape-font-specification:Arial-BoldMT;writing-mode:lr-tb;fill:#100f0d;fill-opacity:1;fill-rule:nonzero;stroke:none;stroke-width:0.34421"
     id="text147"
     x="5.1634459"
     y="72.787643"><tspan
       x="5.1634459 6.8501525 8.395257 9.940362 11.346398 12.752404 14.158409 15.000511 16.406548"
       y="72.787643"
       sodipodi:role="line"
       id="tspan143"
       style="stroke-width:0.34421">Subsystem</tspan><tspan
       x="6.2151732 8.0409784 9.4469852 10.853021 11.556024 12.962029 14.368065 15.071068 15.774071"
       y="75.17485"
       sodipodi:role="line"
       id="tspan145"
       style="stroke-width:0.34421">Device ID</tspan></text><path
     d="m 23.271927,20.441368 h 23.063195 v -5.75945 H 23.271927 Z"
     style="fill:#ffffff;fill-opacity:1;fill-rule:nonzero;stroke:none;stroke-width:0.352778"
     id="path149" /><g
     id="g151"
     transform="matrix(0.34420879,0,0,-0.36156195,-74.647183,199.18717)"><path
       d="m 284.475,494.383 h 67.004 v 15.93 h -67.004 z"
       style="fill:none;stroke:#211d1d;stroke-width:0.678;stroke-linecap:butt;stroke-linejoin:miter;stroke-miterlimit:5;stroke-dasharray:none;stroke-opacity:1"
       id="path153" /></g><path
     d="M 0.11700614,20.438898 H 23.248997 v -5.7598 H 0.11700614 Z"
     style="fill:#ffffff;fill-opacity:1;fill-rule:nonzero;stroke:none;stroke-width:0.352778"
     id="path155" /><g
     id="g157"
     transform="matrix(0.34420879,0,0,-0.36156195,-74.647183,199.18717)"><path
       d="m 217.205,494.383 h 67.203 v 15.93 h -67.203 z"
       style="fill:none;stroke:#211d1d;stroke-width:0.678;stroke-linecap:butt;stroke-linejoin:miter;stroke-miterlimit:5;stroke-dasharray:none;stroke-opacity:1"
       id="path159" /></g><path
     d="M 0.11700614,95.312098 H 46.335472 v -5.7591 H 0.11700614 Z"
     style="fill:#bdbcbc;fill-opacity:1;fill-rule:nonzero;stroke:none;stroke-width:0.352778"
     id="path161" /><g
     id="g163"
     transform="matrix(0.34420879,0,0,-0.36156195,-74.647183,199.18717)"><path
       d="m 217.205,287.298 h 134.274 v 15.929 H 217.205 Z"
       style="fill:none;stroke:#211d1d;stroke-width:0.678;stroke-linecap:butt;stroke-linejoin:miter;stroke-miterlimit:5;stroke-dasharray:none;stroke-opacity:1"
       id="path165" /></g><text
     xml:space="preserve"
     transform="scale(0.97571475,1.0248897)"
     style="font-variant:normal;font-weight:bold;font-size:2.52881px;font-family:Arial;-inkscape-font-specification:Arial-BoldMT;writing-mode:lr-tb;fill:#100f0d;fill-opacity:1;fill-rule:nonzero;stroke:none;stroke-width:0.34421"
     id="text171"
     x="18.087029"
     y="91.031906"><tspan
       x="18.087029 19.912804 21.31884 22.724846 24.130882 25.114586 26.520592 27.926636"
       y="91.031906"
       sodipodi:role="line"
       id="tspan167"
       style="stroke-width:0.34421">Reserved</tspan><tspan
       x="13.140924 15.247429 15.950432 17.495537 18.19854 20.165947 21.711052 1.3465513 3.453027 4.8590636 6.2650695 6.9681029 8.5131769 9.9192133"
       y="96.529541"
       sodipodi:role="line"
       id="tspan169"
       style="stroke-width:0.34421">Min GntMax Lat</tspan></text><path
     d="M 0.11700614,83.758278 H 46.335472 v -5.75945 H 0.11700614 Z"
     style="fill:#ffffff;fill-opacity:1;fill-rule:nonzero;stroke:none;stroke-width:0.352778"
     id="path173" /><g
     id="g175"
     transform="matrix(0.34420879,0,0,-0.36156195,-74.647183,199.18717)"><path
       d="m 217.205,319.254 h 134.274 v 15.93 H 217.205 Z"
       style="fill:none;stroke:#211d1d;stroke-width:0.678;stroke-linecap:butt;stroke-linejoin:miter;stroke-miterlimit:5;stroke-dasharray:none;stroke-opacity:1"
       id="path177" /></g><text
     xml:space="preserve"
     transform="scale(0.97571475,1.0248897)"
     style="font-variant:normal;font-weight:bold;font-size:2.52881px;font-family:Arial;-inkscape-font-specification:Arial-BoldMT;writing-mode:lr-tb;fill:#100f0d;fill-opacity:1;fill-rule:nonzero;stroke:none;stroke-width:0.34421"
     id="text181"
     x="5.3481994"
     y="79.758636"><tspan
       x="5.3481994 7.0349059 8.4409418 9.9860468 11.392053 12.937158 14.343163 15.046196 16.591301 18.136406 18.839409 20.665215 22.632622 24.739136 25.442131 27.267937 28.673943 30.079988 31.485987 32.093655 33.91946 35.464565 37.00967 37.993374 39.39941 40.805416"
       y="79.758636"
       sodipodi:role="line"
       id="tspan179"
       style="stroke-width:0.34421">Expansion ROM Base Address</tspan></text><path
     d="M 0.11700614,72.274648 H 46.335472 v -5.7598 H 0.11700614 Z"
     style="fill:#ffffff;fill-opacity:1;fill-rule:nonzero;stroke:none;stroke-width:0.352778"
     id="path183" /><g
     id="g185"
     transform="matrix(0.34420879,0,0,-0.36156195,-74.647183,199.18717)"><path
       d="m 217.205,351.015 h 134.274 v 15.931 H 217.205 Z"
       style="fill:none;stroke:#211d1d;stroke-width:0.678;stroke-linecap:butt;stroke-linejoin:miter;stroke-miterlimit:5;stroke-dasharray:none;stroke-opacity:1"
       id="path187" /></g><text
     xml:space="preserve"
     transform="scale(0.97571475,1.0248897)"
     style="font-variant:normal;font-weight:bold;font-size:2.52881px;font-family:Arial;-inkscape-font-specification:Arial-BoldMT;writing-mode:lr-tb;fill:#100f0d;fill-opacity:1;fill-rule:nonzero;stroke:none;stroke-width:0.34421"
     id="text191"
     x="12.411645"
     y="85.412643"><tspan
       x="12.411645 14.23745 15.643456 17.049461 18.455498 19.439201 20.845207 22.251244"
       y="85.412643"
       sodipodi:role="line"
       id="tspan189"
       style="stroke-width:0.34421">Reserved</tspan></text><path
     d="M 0.11700614,43.476348 H 46.335472 v -5.7591 H 0.11700614 Z"
     style="fill:#ec1d27;fill-opacity:1;fill-rule:nonzero;stroke:none;stroke-width:0.352778"
     id="path193" /><g
     id="g195"
     transform="matrix(0.34420879,0,0,-0.36156195,-74.647183,199.18717)"><path
       d="m 217.205,430.665 h 134.274 v 15.929 H 217.205 Z"
       style="fill:none;stroke:#211d1d;stroke-width:0.678;stroke-linecap:butt;stroke-linejoin:miter;stroke-miterlimit:5;stroke-dasharray:none;stroke-opacity:1"
       id="path197" /></g><path
     d="m 34.786942,31.957798 h 11.54889 v -5.7598 h -11.54889 z"
     style="fill:#ffffff;fill-opacity:1;fill-rule:nonzero;stroke:none;stroke-width:0.352778"
     id="path199" /><g
     id="g201"
     transform="matrix(0.34420879,0,0,-0.36156195,-74.647183,199.18717)"><path
       d="m 317.928,462.523 h 33.552 v 15.93 h -33.552 z"
       style="fill:none;stroke:#211d1d;stroke-width:0.678;stroke-linecap:butt;stroke-linejoin:miter;stroke-miterlimit:5;stroke-dasharray:none;stroke-opacity:1"
       id="path203" /></g><path
     d="m 23.214777,31.957798 h 11.548885 v -5.7598 H 23.214777 Z"
     style="fill:#ffffff;fill-opacity:1;fill-rule:nonzero;stroke:none;stroke-width:0.352778"
     id="path205" /><g
     id="g207"
     transform="matrix(0.34420879,0,0,-0.36156195,-74.647183,199.18717)"><path
       d="m 284.308,462.523 h 33.552 v 15.93 h -33.552 z"
       style="fill:none;stroke:#211d1d;stroke-width:0.678;stroke-linecap:butt;stroke-linejoin:miter;stroke-miterlimit:5;stroke-dasharray:none;stroke-opacity:1"
       id="path209" /></g><path
     d="M 0.11700614,31.957798 H 11.734337 v -5.7598 H 0.11700614 Z"
     style="fill:#ffffff;fill-opacity:1;fill-rule:nonzero;stroke:none;stroke-width:0.352778"
     id="path211" /><g
     id="g213"
     transform="matrix(0.34420879,0,0,-0.36156195,-74.647183,199.18717)"><path
       d="m 217.205,462.523 h 33.751 v 15.93 h -33.751 z"
       style="fill:none;stroke:#211d1d;stroke-width:0.678;stroke-linecap:butt;stroke-linejoin:miter;stroke-miterlimit:5;stroke-dasharray:none;stroke-opacity:1"
       id="path215" /></g><text
     xml:space="preserve"
     transform="scale(0.97571475,1.0248897)"
     style="font-variant:normal;font-weight:bold;font-size:2.52881px;font-family:Arial;-inkscape-font-specification:Arial-BoldMT;writing-mode:lr-tb;fill:#100f0d;fill-opacity:1;fill-rule:nonzero;stroke:none;stroke-width:0.34421"
     id="text221"
     x="24.902763"
     y="28.093231"><tspan
       x="24.902763 26.447876 27.853874 28.695976 30.101984 31.647081 33.053127"
       y="28.093231"
       sodipodi:role="line"
       id="tspan217"
       style="stroke-width:0.34421">Latency</tspan><tspan
       x="26.260735 27.7603 28.46331 30.711428 32.117458"
       y="30.482956"
       sodipodi:role="line"
       id="tspan219"
       style="stroke-width:0.34421">Timer</tspan></text><text
     xml:space="preserve"
     transform="scale(0.97572484,1.0248791)"
     style="font-variant:normal;font-weight:bold;font-size:2.24782px;font-family:Arial;-inkscape-font-specification:Arial-BoldMT;writing-mode:lr-tb;fill:#100f0d;fill-opacity:1;fill-rule:nonzero;stroke:none;stroke-width:0.344214"
     id="text227"
     x="38.108669"
     y="28.093517"><tspan
       x="38.108669 39.731594 40.98138 42.231159 43.60458"
       y="28.093517"
       sodipodi:role="line"
       id="tspan223"
       style="stroke-width:0.344214">Cache</tspan><tspan
       x="36.609371 37.982784 38.607693 39.981106 41.230892 41.85577 43.355076 43.979969 45.103886"
       y="30.482952"
       sodipodi:role="line"
       id="tspan225"
       style="stroke-width:0.344214">Line Size</tspan></text><path
     d="m 11.700117,31.957798 h 11.54888 v -5.7598 h -11.54888 z"
     style="fill:#ffffff;fill-opacity:1;fill-rule:nonzero;stroke:none;stroke-width:0.352778"
     id="path229" /><g
     id="g231"
     transform="matrix(0.34420879,0,0,-0.36156195,-74.647183,199.18717)"><path
       d="m 250.857,462.523 h 33.552 v 15.93 h -33.552 z"
       style="fill:none;stroke:#211d1d;stroke-width:0.678;stroke-linecap:butt;stroke-linejoin:miter;stroke-miterlimit:5;stroke-dasharray:none;stroke-opacity:1"
       id="path233" /></g><text
     xml:space="preserve"
     transform="scale(0.97571475,1.0248897)"
     style="font-variant:normal;font-weight:bold;font-size:2.52881px;font-family:Arial;-inkscape-font-specification:Arial-BoldMT;writing-mode:lr-tb;fill:#ffffff;fill-opacity:1;fill-rule:nonzero;stroke:none;stroke-width:0.34421"
     id="text237"
     x="9.704278"
     y="40.456234"><tspan
       x="9.704278 11.530084 12.93612 14.342125 15.748131 16.357079 18.182884 19.727989 21.273094 22.256798 23.662804 25.06884 26.474846 27.177879 28.583885 29.286896 30.128992 31.954798 33.780605 35.606403 37.012417"
       y="40.456234"
       sodipodi:role="line"
       id="tspan235"
       style="stroke-width:0.34421">Base Address 1 (BAR1)</tspan></text><path
     d="M 0.11700614,37.717248 H 46.335472 v -5.75945 H 0.11700614 Z"
     style="fill:#ec1d27;fill-opacity:1;fill-rule:nonzero;stroke:none;stroke-width:0.352778"
     id="path239" /><g
     id="g241"
     transform="matrix(0.34420879,0,0,-0.36156195,-74.647183,199.18717)"><path
       d="m 217.205,446.594 h 134.274 v 15.93 H 217.205 Z"
       style="fill:none;stroke:#211d1d;stroke-width:0.678;stroke-linecap:butt;stroke-linejoin:miter;stroke-miterlimit:5;stroke-dasharray:none;stroke-opacity:1"
       id="path243" /></g><text
     xml:space="preserve"
     transform="scale(0.97571475,1.0248897)"
     style="font-variant:normal;font-weight:bold;font-size:2.52881px;font-family:Arial;-inkscape-font-specification:Arial-BoldMT;writing-mode:lr-tb;fill:#ffffff;fill-opacity:1;fill-rule:nonzero;stroke:none;stroke-width:0.34421"
     id="text247"
     x="9.704278"
     y="34.836651"><tspan
       x="9.704278 11.530084 12.93612 14.342125 15.748131 16.357079 18.182884 19.727989 21.273094 22.256798 23.662804 25.06884 26.474846 27.177879 28.583885 29.286896 30.128992 31.954798 33.780605 35.606403 37.012417"
       y="34.836651"
       sodipodi:role="line"
       id="tspan245"
       style="stroke-width:0.34421">Base Address 0 (BAR0)</tspan></text><path
     d="M 0.11700614,55.031228 H 46.335472 v -5.75945 H 0.11700614 Z"
     style="fill:#ec1d27;fill-opacity:1;fill-rule:nonzero;stroke:none;stroke-width:0.352778"
     id="path249" /><g
     id="g251"
     transform="matrix(0.34420879,0,0,-0.36156195,-74.647183,199.18717)"><path
       d="m 217.205,398.707 h 134.274 v 15.93 H 217.205 Z"
       style="fill:none;stroke:#211d1d;stroke-width:0.678;stroke-linecap:butt;stroke-linejoin:miter;stroke-miterlimit:5;stroke-dasharray:none;stroke-opacity:1"
       id="path253" /></g><text
     xml:space="preserve"
     transform="scale(0.97571475,1.0248897)"
     style="font-variant:normal;font-weight:bold;font-size:2.52881px;font-family:Arial;-inkscape-font-specification:Arial-BoldMT;writing-mode:lr-tb;fill:#ffffff;fill-opacity:1;fill-rule:nonzero;stroke:none;stroke-width:0.34421"
     id="text257"
     x="9.704278"
     y="51.729855"><tspan
       x="9.704278 11.530084 12.93612 14.342125 15.748131 16.357079 18.182884 19.727989 21.273094 22.256798 23.662804 25.06884 26.474846 27.177879 28.583885 29.286896 30.128992 31.954798 33.780605 35.606403 37.012417"
       y="51.729855"
       sodipodi:role="line"
       id="tspan255"
       style="stroke-width:0.34421">Base Address 3 (BAR3)</tspan></text><path
     d="M 0.11700614,49.271428 H 46.335472 v -5.7591 H 0.11700614 Z"
     style="fill:#ec1d27;fill-opacity:1;fill-rule:nonzero;stroke:none;stroke-width:0.352778"
     id="path259" /><g
     id="g261"
     transform="matrix(0.34420879,0,0,-0.36156195,-74.647183,199.18717)"><path
       d="m 217.205,414.637 h 134.274 v 15.929 H 217.205 Z"
       style="fill:none;stroke:#211d1d;stroke-width:0.678;stroke-linecap:butt;stroke-linejoin:miter;stroke-miterlimit:5;stroke-dasharray:none;stroke-opacity:1"
       id="path263" /></g><text
     xml:space="preserve"
     transform="scale(0.97571475,1.0248897)"
     style="font-variant:normal;font-weight:bold;font-size:2.52881px;font-family:Arial;-inkscape-font-specification:Arial-BoldMT;writing-mode:lr-tb;fill:#ffffff;fill-opacity:1;fill-rule:nonzero;stroke:none;stroke-width:0.34421"
     id="text267"
     x="9.704278"
     y="46.110271"><tspan
       x="9.704278 11.530084 12.93612 14.342125 15.748131 16.357079 18.182884 19.727989 21.273094 22.256798 23.662804 25.06884 26.474846 27.177879 28.583885 29.286896 30.128992 31.954798 33.780605 35.606403 37.012417"
       y="46.110271"
       sodipodi:role="line"
       id="tspan265"
       style="stroke-width:0.34421">Base Address 2 (BAR2)</tspan></text><path
     d="M 0.11700614,66.585408 H 46.335472 v -5.75945 H 0.11700614 Z"
     style="fill:#ec1d27;fill-opacity:1;fill-rule:nonzero;stroke:none;stroke-width:0.352778"
     id="path269" /><g
     id="g271"
     transform="matrix(0.34420879,0,0,-0.36156195,-74.647183,199.18717)"><path
       d="m 217.205,366.751 h 134.274 v 15.93 H 217.205 Z"
       style="fill:none;stroke:#211d1d;stroke-width:0.678;stroke-linecap:butt;stroke-linejoin:miter;stroke-miterlimit:5;stroke-dasharray:none;stroke-opacity:1"
       id="path273" /></g><text
     xml:space="preserve"
     transform="scale(0.97571475,1.0248897)"
     style="font-variant:normal;font-weight:bold;font-size:2.52881px;font-family:Arial;-inkscape-font-specification:Arial-BoldMT;writing-mode:lr-tb;fill:#100f0d;fill-opacity:1;fill-rule:nonzero;stroke:none;stroke-width:0.34421"
     id="text279"
     x="9.704278"
     y="63.003124"><tspan
       x="9.704278 11.530084 12.93612 14.342125 15.748131 16.357079 18.182884 19.727989 21.273094 22.256798 23.662804 25.06884 26.474846 27.177879 28.583885 29.286896 30.128992 31.954798 33.780605 35.606403 37.012417"
       y="63.003124"
       sodipodi:role="line"
       id="tspan275"
       style="stroke-width:0.34421">Base Address 5 (BAR5)</tspan><tspan
       x="11.345483 13.171288 14.577293 15.561028 17.106133 18.931908 20.477013 21.883049 22.586052 24.41185 25.114861 26.801559 27.504601 29.191299 30.736414 31.439417 32.984524 33.826626 35.232624"
       y="68.619614"
       sodipodi:role="line"
       id="tspan277"
       style="stroke-width:0.34421">CardBus CIS Pointer</tspan></text><path
     d="M 0.11700614,60.825958 H 46.335472 v -5.75945 H 0.11700614 Z"
     style="fill:#ec1d27;fill-opacity:1;fill-rule:nonzero;stroke:none;stroke-width:0.352778"
     id="path281" /><g
     id="g283"
     transform="matrix(0.34420879,0,0,-0.36156195,-74.647183,199.18717)"><path
       d="m 217.205,382.68 h 134.274 v 15.93 H 217.205 Z"
       style="fill:none;stroke:#211d1d;stroke-width:0.678;stroke-linecap:butt;stroke-linejoin:miter;stroke-miterlimit:5;stroke-dasharray:none;stroke-opacity:1"
       id="path285" /></g><text
     xml:space="preserve"
     transform="scale(0.97571475,1.0248897)"
     style="font-variant:normal;font-weight:bold;font-size:2.52881px;font-family:Arial;-inkscape-font-specification:Arial-BoldMT;writing-mode:lr-tb;fill:#100f0d;fill-opacity:1;fill-rule:nonzero;stroke:none;stroke-width:0.34421"
     id="text295"
     x="9.704278"
     y="57.383846"><tspan
       x="9.704278 11.530084 12.93612 14.342125 15.748131 16.357079 18.182884 19.727989 21.273094 22.256798 23.662804 25.06884 26.474846 27.177879 28.583885 29.286896 30.128992 31.954798 33.780605 35.606403 37.012417"
       y="57.383846"
       sodipodi:role="line"
       id="tspan287"
       style="stroke-width:0.34421">Base Address 4 (BAR4)</tspan><tspan
       x="3.3668454 5.1926513 5.8956542 7.5823607"
       y="29.27359"
       sodipodi:role="line"
       id="tspan289"
       style="stroke-width:0.34421">BIST</tspan><tspan
       x="13.704614 15.530418 16.936424 18.342461 19.887566 21.293571"
       y="28.092636"
       sodipodi:role="line"
       id="tspan291"
       style="stroke-width:0.34421">Header</tspan><tspan
       x="15.133385 16.491356 17.897392 19.442497"
       y="30.482361"
       sodipodi:role="line"
       id="tspan293"
       style="stroke-width:0.34421">Type</tspan></text><path
     d="m 34.786942,26.197998 h 11.54889 v -5.7591 h -11.54889 z"
     style="fill:#ffffff;fill-opacity:1;fill-rule:nonzero;stroke:none;stroke-width:0.352778"
     id="path297" /><g
     id="g299"
     transform="matrix(0.34420879,0,0,-0.36156195,-74.647183,199.18717)"><path
       d="m 317.928,478.454 h 33.552 v 15.929 h -33.552 z"
       style="fill:none;stroke:#211d1d;stroke-width:0.678;stroke-linecap:butt;stroke-linejoin:miter;stroke-miterlimit:5;stroke-dasharray:none;stroke-opacity:1"
       id="path301" /></g><path
     d="M 0.11700614,26.197998 H 34.818692 v -5.7591 H 0.11700614 Z"
     style="fill:#ffffff;fill-opacity:1;fill-rule:nonzero;stroke:none;stroke-width:0.352778"
     id="path303" /><g
     id="g305"
     transform="matrix(0.34420879,0,0,-0.36156195,-74.647183,199.18717)"><path
       d="m 217.205,478.454 h 100.816 v 15.929 H 217.205 Z"
       style="fill:none;stroke:#211d1d;stroke-width:0.678;stroke-linecap:butt;stroke-linejoin:miter;stroke-miterlimit:5;stroke-dasharray:none;stroke-opacity:1"
       id="path307" /></g><text
     xml:space="preserve"
     transform="scale(0.97572484,1.0248791)"
     style="font-variant:normal;font-weight:bold;font-size:2.24782px;font-family:Arial;-inkscape-font-specification:'Arial Bold';writing-mode:lr-tb;fill:#100f0d;fill-opacity:1;fill-rule:nonzero;stroke:none;stroke-width:0.344214"
     id="text313"
     x="39.358456"
     y="22.474224"><tspan
       x="39.358456 40.98138 42.231159"
       y="22.474224"
       sodipodi:role="line"
       id="tspan309"
       style="stroke-width:0.344214">5HY</tspan><tspan
       x="40.361446 40.986782"
       y="24.861408"
       sodipodi:role="line"
       id="tspan311"
       style="stroke-width:0.344214">,'</tspan></text><text
     xml:space="preserve"
     transform="scale(0.97571475,1.0248897)"
     style="font-variant:normal;font-weight:bold;font-size:2.52881px;font-family:Arial;-inkscape-font-specification:Arial-BoldMT;writing-mode:lr-tb;fill:#100f0d;fill-opacity:1;fill-rule:nonzero;stroke:none;stroke-width:0.34421"
     id="text319"
     x="11.633691"
     y="23.653603"><tspan
       x="11.633691 13.459496 14.162498 15.568504 16.974541 18.380547 19.083549 20.909355 22.45446 23.999565"
       y="23.653603"
       sodipodi:role="line"
       id="tspan315"
       style="stroke-width:0.34421">Class Code</tspan><tspan
       x="29.568016 31.393824 32.938931 35.187038 37.435146 38.84116 40.386257 8.0577021 9.7444086 10.586511 11.992517 12.834619 14.379723"
       y="18.090225"
       sodipodi:role="line"
       id="tspan317"
       style="stroke-width:0.34421">CommandStatus</tspan></text><path
     d="M 23.272277,14.679098 H 46.335832 V 8.919288 H 23.272277 Z"
     style="fill:#ffffff;fill-opacity:1;fill-rule:nonzero;stroke:none;stroke-width:0.352778"
     id="path321" /><g
     id="g323"
     transform="matrix(0.34420879,0,0,-0.36156195,-74.647183,199.18717)"><path
       d="m 284.475,510.313 h 67.004 v 15.93 h -67.004 z"
       style="fill:none;stroke:#211d1d;stroke-width:0.678;stroke-linecap:butt;stroke-linejoin:miter;stroke-miterlimit:5;stroke-dasharray:none;stroke-opacity:1"
       id="path325" /></g><path
     d="M 0.11700614,14.679098 H 23.248997 V 8.919288 H 0.11700614 Z"
     style="fill:#ffffff;fill-opacity:1;fill-rule:nonzero;stroke:none;stroke-width:0.352778"
     id="path327" /><g
     id="g329"
     transform="matrix(0.34420879,0,0,-0.36156195,-74.647183,199.18717)"><path
       d="m 217.205,510.313 h 67.203 v 15.93 h -67.203 z"
       style="fill:none;stroke:#211d1d;stroke-width:0.678;stroke-linecap:butt;stroke-linejoin:miter;stroke-miterlimit:5;stroke-dasharray:none;stroke-opacity:1"
       id="path331" /></g><text
     xml:space="preserve"
     transform="scale(0.97571475,1.0248897)"
     style="font-variant:normal;font-weight:bold;font-size:2.52881px;font-family:Arial;-inkscape-font-specification:Arial-BoldMT;writing-mode:lr-tb;fill:#100f0d;fill-opacity:1;fill-rule:nonzero;stroke:none;stroke-width:0.34421"
     id="text335"
     x="29.848871"
     y="12.470855"><tspan
       x="29.848871 31.396502 32.802517 34.34763 35.892727 37.43784 38.421535 39.124538 39.827579 6.2300353 8.0558405 9.4618464 10.867852 11.570886 12.976892 14.382927 15.08593 15.788933"
       y="12.470855"
       sodipodi:role="line"
       id="tspan333"
       style="stroke-width:0.34421">Vendor IDDevice ID</tspan></text><text
     xml:space="preserve"
     transform="scale(0.97572484,1.0248791)"
     style="font-variant:normal;font-weight:bold;font-size:2.24782px;font-family:Arial;-inkscape-font-specification:Arial-BoldMT;writing-mode:lr-tb;fill:#656263;fill-opacity:1;fill-rule:nonzero;stroke:none;stroke-width:0.344214"
     id="text339"
     x="48.682003"
     y="12.148112"><tspan
       x="48.682003 49.931789 51.181576"
       y="12.148112"
       sodipodi:role="line"
       id="tspan337"
       style="stroke-width:0.344214">00h</tspan></text><text
     xml:space="preserve"
     transform="scale(0.97571475,1.0248897)"
     style="font-variant:normal;font-weight:bold;font-size:1.68587px;font-family:Arial;-inkscape-font-specification:Arial-BoldMT;writing-mode:lr-tb;fill:#656263;fill-opacity:1;fill-rule:nonzero;stroke:none;stroke-width:0.34421"
     id="text343"
     x="46.317196"
     y="8.0033484"><tspan
       x="46.317196 36.201954 23.932152 24.869507 11.709741 12.647088 0.25911841 1.1964658"
       y="8.0033484"
       sodipodi:role="line"
       id="tspan341"
       style="stroke-width:0.34421">07152331</tspan></text><text
     xml:space="preserve"
     transform="scale(0.97572484,1.0248791)"
     style="font-variant:normal;font-weight:bold;font-size:2.24782px;font-family:Arial;-inkscape-font-specification:Arial-BoldMT;writing-mode:lr-tb;fill:#656263;fill-opacity:1;fill-rule:nonzero;stroke:none;stroke-width:0.344214"
     id="text375"
     x="48.682003"
     y="17.767757"><tspan
       x="48.682003 49.931789 51.181576"
       y="17.767757"
       sodipodi:role="line"
       id="tspan345"
       style="stroke-width:0.344214">04h</tspan><tspan
       x="48.682003 49.931789 51.181576"
       y="23.317844"
       sodipodi:role="line"
       id="tspan347"
       style="stroke-width:0.344214">08h</tspan><tspan
       x="48.682003 49.931789 51.554714"
       y="29.079014"
       sodipodi:role="line"
       id="tspan349"
       style="stroke-width:0.344214">0Ch</tspan><tspan
       x="48.682003 49.931789 51.181576"
       y="34.840168"
       sodipodi:role="line"
       id="tspan351"
       style="stroke-width:0.344214">10h</tspan><tspan
       x="48.682003 49.931789 51.181576"
       y="40.459736"
       sodipodi:role="line"
       id="tspan353"
       style="stroke-width:0.344214">14h</tspan><tspan
       x="48.682003 49.931789 51.181576"
       y="46.009602"
       sodipodi:role="line"
       id="tspan355"
       style="stroke-width:0.344214">18h</tspan><tspan
       x="48.682003 49.931789 51.554714"
       y="51.768742"
       sodipodi:role="line"
       id="tspan357"
       style="stroke-width:0.344214">1Ch</tspan><tspan
       x="48.682003 49.931789 51.181576"
       y="57.10709"
       sodipodi:role="line"
       id="tspan359"
       style="stroke-width:0.344214">20h</tspan><tspan
       x="48.682003 49.931789 51.181576"
       y="62.726646"
       sodipodi:role="line"
       id="tspan361"
       style="stroke-width:0.344214">24h</tspan><tspan
       x="48.682003 49.931789 51.181576"
       y="68.276512"
       sodipodi:role="line"
       id="tspan363"
       style="stroke-width:0.344214">28h</tspan><tspan
       x="48.682003 49.931789 51.554714"
       y="74.035652"
       sodipodi:role="line"
       id="tspan365"
       style="stroke-width:0.344214">2Ch</tspan><tspan
       x="48.682003 49.931789 51.181576"
       y="79.796822"
       sodipodi:role="line"
       id="tspan367"
       style="stroke-width:0.344214">30h</tspan><tspan
       x="48.682003 49.931789 51.181576"
       y="85.416374"
       sodipodi:role="line"
       id="tspan369"
       style="stroke-width:0.344214">34h</tspan><tspan
       x="48.682003 49.931789 51.181576"
       y="90.966255"
       sodipodi:role="line"
       id="tspan371"
       style="stroke-width:0.344214">38h</tspan><tspan
       x="48.682003 49.931789 51.554714"
       y="96.727409"
       sodipodi:role="line"
       id="tspan373"
       style="stroke-width:0.344214">3Ch</tspan></text></svg>
